<?xml version="1.0" standalone="no"?>
<!DOCTYPE svg PUBLIC "-//W3C//DTD SVG 20010904//EN"
 "http://www.w3.org/TR/2001/REC-SVG-20010904/DTD/svg10.dtd">
<svg version="1.0" xmlns="http://www.w3.org/2000/svg"
 width="1280.000000pt" height="1220.000000pt" viewBox="0 0 1280.000000 1220.000000"
 preserveAspectRatio="xMidYMid meet">
<metadata>
Created by potrace 1.15, written by Peter Selinger 2001-2017
</metadata>
<g transform="translate(0.000000,1220.000000) scale(0.100000,-0.100000)"
fill="#000000" stroke="none">
<path d="M5460 12164 c-301 -168 -615 -468 -849 -814 -202 -298 -333 -569
-457 -945 -94 -286 -179 -682 -186 -868 l-3 -78 1110 -1529 c611 -841 1112
-1530 1115 -1530 3 0 4 192 2 426 -2 405 -2 426 15 419 138 -60 248 -60 385 0
17 7 18 -19 20 -420 l3 -427 166 229 c877 1206 2056 2830 2062 2839 7 13 -33
303 -62 446 -209 1013 -731 1835 -1426 2241 l-80 47 -437 -437 -438 -438 -437
437 -438 438 -65 -36z"/>
<path d="M2320 9314 c-525 -48 -986 -192 -1373 -427 -114 -70 -267 -185 -354
-264 l-52 -48 281 -549 c260 -509 279 -549 262 -560 -11 -6 -257 -132 -549
-281 l-530 -270 4 -39 c10 -115 117 -427 207 -609 294 -586 832 -1120 1509
-1498 139 -78 367 -189 387 -189 6 0 158 48 337 106 179 58 409 133 511 166
102 33 280 91 395 128 116 38 296 96 400 130 218 71 521 169 828 269 517 169
959 312 1037 336 47 15 89 31 93 35 4 4 -27 19 -70 33 -43 14 -220 71 -393
127 -173 56 -318 104 -322 107 -4 2 10 27 31 56 62 81 84 147 85 249 1 49 2
88 3 88 3 0 386 -124 633 -205 90 -30 166 -53 168 -50 4 4 -2187 3026 -2218
3058 -28 30 -354 84 -649 107 -178 13 -481 11 -661 -6z"/>
<path d="M9825 9319 c-254 -19 -629 -78 -651 -102 -6 -7 -250 -340 -541 -742
-291 -401 -789 -1087 -1107 -1524 -317 -437 -575 -795 -573 -797 2 -2 176 53
388 121 211 69 393 128 403 131 17 6 19 2 13 -44 -12 -99 30 -225 100 -302 25
-28 31 -41 22 -44 -8 -3 -191 -62 -407 -132 -215 -71 -389 -131 -385 -135 5
-3 33 -14 63 -23 30 -10 136 -44 235 -76 99 -32 360 -117 580 -188 220 -72
580 -189 800 -260 220 -72 569 -185 775 -252 206 -67 546 -178 756 -246 209
-68 388 -124 396 -124 24 0 336 157 468 235 426 252 803 572 1075 910 195 242
384 577 473 835 36 103 98 349 90 355 -2 1 -244 124 -538 274 -294 149 -541
275 -548 279 -9 6 62 154 268 560 l281 551 -47 43 c-547 505 -1449 768 -2389
697z"/>
<path d="M5655 5295 c-104 -35 -359 -118 -565 -185 -206 -67 -386 -125 -400
-130 -14 -5 -180 -59 -370 -120 -190 -62 -370 -120 -400 -130 -30 -10 -210
-69 -400 -130 -190 -62 -439 -143 -555 -180 -115 -38 -293 -96 -395 -129 -102
-33 -218 -70 -259 -83 -86 -27 -80 -18 -220 -303 -268 -544 -407 -1070 -427
-1620 -15 -407 63 -843 208 -1156 l35 -76 394 63 c217 34 490 78 607 96 117
19 215 31 217 28 2 -4 47 -278 100 -610 53 -333 97 -605 98 -607 12 -12 270
-25 397 -20 810 33 1646 448 2338 1161 l132 136 0 1889 c0 1039 3 1896 6 1905
19 50 -36 -21 -260 -331 l-250 -345 -17 34 c-46 90 -153 171 -261 198 -27 7
-48 14 -48 17 0 3 108 154 241 336 216 297 259 359 248 356 -2 0 -89 -29 -194
-64z"/>
<path d="M6951 5351 c0 -3 112 -159 248 -346 l248 -340 -56 -16 c-108 -30
-181 -82 -240 -170 l-38 -57 -186 256 c-102 142 -215 297 -251 347 l-66 90 0
-1909 0 -1908 173 -172 c311 -310 603 -532 957 -727 518 -285 1090 -426 1579
-390 86 7 157 14 159 16 4 4 192 1180 192 1202 0 7 10 13 23 13 22 0 1139
-175 1184 -185 18 -4 25 3 43 42 113 251 184 531 211 834 15 165 7 507 -16
674 -62 466 -209 923 -441 1375 -47 91 -93 175 -102 186 -11 14 -62 36 -147
63 -138 45 -781 253 -852 277 -49 16 -244 79 -813 264 -223 72 -499 162 -615
200 -298 97 -993 323 -1102 358 -51 17 -93 27 -92 23z"/>
</g>
</svg>
