<svg
   viewBox="0 0 1601.2609 1899.133" xmlns="http://www.w3.org/2000/svg">
  <path
     d="m 816.67272,101.97596 c -55.96704,2.208 -136.08144,4.1952 -142.60656,28.48464 -4.7184,17.57856 -11.07504,23.63424 -28.89648,27.52176 l -11.5704,2.5248 -13.48512,-13.97088 C 602.09496,127.871 598.914,126.55772 567.37272,124.77212 l -27.15846,-1.536 -10.30944,9.21792 c -7.01568,6.26928 -14.04192,9.79536 -21.97584,11.02704 -6.41424,0.9936 -20.04432,5.48592 -30.28845,9.98304 -10.24368,4.4976 -29.91939,11.67072 -43.72371,15.9432 -13.8048,4.272 -86.9496,15.83952 -100.00512,21.34416 -13.05552,5.50176 -28.76448,11.38032 -34.90943,13.06032 -6.14544,1.68 -20.44848,10.04352 -31.78416,18.58656 -11.33616,8.54016 -27.0792,18.44352 -34.98336,22.00416 -16.20192,7.29792 -27.94128,17.79504 -73.29792,65.54399 -36.2256,38.13744 -41.64816,47.11008 -45.59904,75.44736 -4.4976,32.26416 0.384,116.85264 7.66944,133.21056 9.45552,21.19728 51.46752,56.30742 86.30592,72.1215 5.80224,2.6304 20.08176,10.49424 31.73424,17.46528 26.32416,15.75888 43.41504,18.88704 54.64272,10.00896 16.11503,-12.74688 26.59568,-58.74024 -6.43071,-71.32104 -19.03728,-7.25286 -101.90856,-21.14496 -78.09549,-105.01488 10.91886,-48.71895 10.16727,-26.99913 54.23343,-92.07666 6.41751,-8.11821 6.08688,-85.27475 28.08096,-64.29635 13.29263,12.68112 35.36657,12.61572 41.77025,11.0778 15.2448,-3.6528 8.54379,-10.75836 35.51739,-33.47484 19.12416,-16.10928 76.92672,-21.50208 131.04528,-25.51872 20.53248,-1.5216 40.63008,-4.5216 47.4744,-7.08432 9.58464,-3.5856 27.60102,-4.88736 93.62982,-6.75456 80.20032,-2.2704 181.90032,-6.17424 181.90032,-13.71744 0,-6.53568 9.08304,-10.52064 23.98512,-10.52064 14.60352,0 16.47888,0.72 26.96016,10.38336 l 11.26464,10.38384 68.45808,0.8736 68.46044,0.8784 20.8575,8.77728 c 18.3537,7.72272 25.103,9.05952 56.1964,11.12736 42.5448,2.832 56.4682,6.58848 83.9453,22.64784 11.5416,6.744 31.0747,17.592 43.4045,24.10656 46.5859,24.60479 91.2619,67.05503 110.1648,104.67599 16.0277,31.89216 20.9174,79.40592 10.5125,102.13296 -10.8927,23.79024 -35.4077,56.28624 -57.7839,76.58694 -25.2907,22.9512 -24.9033,22.71936 -43.5446,25.75488 -40.7568,6.63312 -35.4187,44.76576 6.2693,44.76576 38.172,0 96.2443,2.22624 132.5332,-29.95617 70.1035,-62.17014 60.2106,-95.37606 55.4764,-163.85289 -4.5888,-66.33216 -9.5448,-81.29472 -26.9309,-81.29472 -11.2383,0 -14.5723,-5.6016 -16.5927,-27.89616 -1.4928,-16.51344 -9.4276,-33.84546 -15.8485,-43.17713 -12.193,-17.72352 -36.9822,-32.31987 -47.5609,-36.73731 -7.0814,-2.9568 -23.804,2.67609 -27.3992,-5.71383 -5.9577,-13.89696 -16.0013,-22.57152 -39.0873,-33.75408 -9.7848,-4.7376 -4.1866,-20.97513 -8.7998,-24.39321 -5.7418,-4.2576 -30.601,2.93193 -41.114,2.05353 -30.6634,-2.568 -13.0942,-15.29832 -18.0737,-25.82856 l -23.7324,2.40024 h -18.1877 c -10.0041,0 -18.61,-1.1856 -19.1241,-2.6352 -4.1712,-11.77872 -8.5272,-16.10448 -19.3723,-19.24032 -6.4964,-1.8768 -28.4266,-8.62704 -48.7354,-14.99664 C 950.14536,100.16636 930.9972,97.468281 816.6708,101.97836 M 688.61064,283.439 c -5.80224,1.32 -27.1656,3.1728 -47.4744,4.1136 -45.87072,2.136 -128.80038,25.24847 -152.1951,42.42095 -40.42704,29.67696 -136.13136,63.06528 -118.19904,102.97056 l 9.13872,20.33712 0.7536,47.94384 c 0.9024,57.59184 86.2488,54.50256 120.924,73.01478 31.056,16.5792 39.8544,29.44224 32.81232,47.96256 -4.0656,10.70016 -10.86336,7.4928 -19.25616,-9.08064 -13.27152,-26.21136 -22.17024,-31.68672 -35.88,-22.08384 -14.59056,10.21776 -101.68368,21.61248 -101.75712,104.89056 l -0.048,76.48656 -7.88832,11.86848 c -8.73552,13.14 -10.51584,27.44832 -3.7392,30.04896 11.15376,4.2816 41.628,11.08368 51.23664,0.5712 16.584,-18.14304 9.93984,-8.4408 9.93984,19.45008 0,20.32176 0.7968,24.30192 6.59376,32.82864 11.60208,17.07504 38.08656,37.45248 2.4912,51.0456 -11.86608,4.5312 -66.21072,-20.01072 -70.81824,-16.49472 l -8.37936,6.39024 -1.2336,58.74432 c -1.0704,51.10125 -2.0064,61.31855 -7.18176,78.52565 -5.01888,16.6872 -6.24816,28.8537 -7.85424,77.8051 -1.824,55.4606 -2.28,59.1902 -10.37856,84.3989 -7.01568,21.8356 -8.8776,32.9577 -10.81344,64.618 -1.2864,21.0336 -4.1088,44.1778 -6.27456,51.4306 -3.6336,12.18 -6.94704,33.5117 -10.85568,69.8928 -3.23999,30.1752 -6.50927,41.6141 -17.19359,60.145 -1.79406,7.8705 69.7484,-3.9788 69.91556,30.8476 -18.00492,25.2392 -49.17684,30.705 -65.20823,50.694 -8.83473,11.0156 5.3331,24.1129 5.3331,24.1129 2.256,5.4015 24.28106,2.4917 28.6721,7.8197 12.42816,15.0754 -10.30725,46.5454 -28.1498,51.0002 -33.81636,9.104 -46.25646,-12.7251 -59.81094,-25.025 -7.08846,-6.4324 -15.84171,8.5884 -18.39723,19.0486 -0.9216,3.7728 -2.4384,7.4539 -3.3696,8.1792 -0.9312,0.7248 -8.08128,12.9341 -15.888,27.1287 -14.47728,26.3246 -20.35584,32.8156 -54.52704,60.2001 -28.82496,23.0991 -49.460639,58.7947 -40.34256,69.7824 10.12512,12.1983 79.88592,11.3544 146.22912,-1.7712 35.268,-6.9787 45.57504,-7.8912 94.94879,-8.3947 65.99472,-0.672 170.51328,-0.5376 217.41792,15.2064 52.13766,17.5022 71.45718,19.6781 100.71462,11.3515 46.11072,-13.1237 67.15008,-15.7349 111.55152,-13.8413 29.05728,1.2384 54.78288,0.4896 89.95632,-2.6208 l 49.26,-4.3584 51.14832,9.8453 c 56.20948,10.8192 76.27828,11.2359 143.15658,2.976 l 28.7088,-3.5472 70.418,-23.0227 c 27.6172,-28.3661 29.0596,-28.693 45.6681,-10.3282 9.2919,10.273 16.4655,15.5981 23.8397,17.6948 14.3798,4.0896 199.1976,-0.48 211.7122,-5.2196 15.7459,-5.9793 16.8825,-21.622 1.848,-25.3963 -3.5856,-0.8976 -6.5175,-2.5968 -6.5175,-3.768 0,-8.5718 -41.7062,-45.5385 -62.5449,-55.4395 -12.3274,-5.8579 -30.8952,-16.3685 -41.258,-23.3549 -21.0652,-14.208 -1.224,-28.799 -6.8673,-28.799 -11.9659,0 -11.7711,-8.5479 1.0032,-44.1327 6.3777,-17.7609 4.7856,-24.4416 -5.8181,-24.4416 -7.931,0 -16.3046,-11.0985 -23.207,-30.7632 -10.7952,-30.7584 -37.2831,-66.8232 -49.0781,-66.8232 -2.064,0 -6.037,-2.2848 -8.8301,-5.0769 -5.8027,-5.8023 -31.2552,-9.8242 -22.955,-40.2951 6.2452,-22.9166 5.3697,-27.936 -8.6194,-49.5211 -7.0315,-10.848 -11.2517,-21.0259 -12.8866,-31.0642 -1.3392,-8.2128 -5.1566,-18.7574 -8.4902,-23.4312 -5.3198,-7.4558 -6.2506,-12.6888 -7.6224,-42.7824 -1.4544,-31.9209 -2.2992,-36.1963 -12.2904,-61.9804 -5.9002,-15.2314 -11.5334,-33.6274 -12.5174,-40.8807 -0.9888,-7.2528 -3.9504,-22.6824 -6.5938,-34.2868 -9.6768,-42.5266 6.7589,-93.3792 4.2048,-242.73076 -2.016,-117.9264 -66.6168,-104.1216 -93.635,-126.60624 -11.737,-9.76656 -17.3866,-16.74768 -20.81,-25.71504 l -4.704,-12.30672 60.206,-18.33072 c 9.3499,-8.89344 20.976,-19.5648 25.8369,-23.71344 l -12.7646,-37.7904 -1.104,-51.79971 c -1.5312,-71.90547 -5.76,-80.87283 -40.0815,-85.03443 -19.0401,-2.3088 -29.3102,-9.20736 -29.3102,-19.6944 0,-10.26192 13.8202,-19.60128 29.0093,-19.60128 32.4278,0 51.2539,-20.00544 51.3753,-54.59856 0.192,-48.84288 -12.5568,-67.42128 -76.0382,-110.96064 l -22.0253,-15.10751 -32.0428,-0.888 c -67.69588,-1.8768 -94.28932,5.76288 -105.73348,30.37343 -9.1176,19.60416 -24.57024,22.05984 -38.39856,6.10032 -9.46848,-10.9296 -32.3616,-21.30815 -76.48656,-34.67759 -19.43568,-5.88912 -107.23488,-6.41376 -123.65328,-2.688 m 282.63666,728.88799 c -1.6848,40.5629 -28.64022,91.0965 -57.54726,111.3602 -46.34016,32.4831 -32.78409,43.7054 -32.78409,65.314 0,22.2576 17.27733,46.5932 93.20997,1.6268 26.7653,-15.8511 39.1978,-46.3005 49.305,-62.3561 l 23.3423,-37.0801 11.2951,-83.5581 c 12.5064,-92.51944 8.5695,-104.06509 -24.6184,-130.27069 -31.7179,-25.04544 -59.66216,-27.05064 -70.1972,14.55783 6.40755,48.1248 2.232,76.06431 7.99458,120.40606 z M 747.38712,871.38064 c -34.79328,10.04352 -65.06112,41.95152 -72.74928,76.69248 -20.09232,90.77618 -7.58256,148.48128 34.63008,159.75118 36.28938,9.6931 32.53002,20.7228 69.1704,19.8912 33.03804,-8.9927 58.64208,-13.9821 78.67899,-24.6801 35.55864,-37.4029 42.37557,-41.8119 40.80405,-116.94292 -1.0272,-49.09104 -2.4864,-52.93152 -31.06944,-81.95664 -18.72096,-19.00848 -21.216,-20.61984 -42.31296,-27.28464 -26.91024,-8.50608 -58.8,-10.7664 -77.15136,-5.46768 M 556.38738,1197.7043 c 16.25217,11.5004 57.48738,19.0091 63.10482,26.7841 13.54896,18.7604 36.85524,4.4856 68.23332,20.6034 35.77968,18.3778 13.42344,24.4775 13.42344,43.8762 -5.19567,41.4836 -16.90518,50.3252 -36.96552,108.796 -1.85712,5.4131 -12.14544,20.472 -21.12624,34.2105 -8.98032,13.7386 -16.32816,27.5405 -16.32816,30.6711 0,3.1296 -2.9856,12.2093 -6.62832,20.1715 -4.584,10.0147 -7.37664,22.3738 -9.05184,40.0685 -1.4208,15.0125 -4.128,28.1947 -6.55632,31.9003 -2.2752,3.4752 -4.1376,7.8619 -4.1376,9.7531 0,6.9183 -13.64352,23.2493 -23.72112,28.3896 -8.15232,4.1616 -15.56934,5.2858 -34.8567,5.2987 -41.98608,0.024 -55.75104,8.6352 -49.70352,31.0906 5.41488,20.1159 17.72112,26.401 68.33712,34.9042 40.75398,6.8472 57.93702,5.1009 69.25974,-7.0368 3.4608,-3.7104 11.82384,-9.5635 18.58656,-13.0051 16.30176,-8.3002 21.59808,-16.4314 29.87712,-45.8789 3.816,-13.5672 12.6624,-40.2029 19.66224,-59.1927 6.99984,-18.9897 13.5696,-38.6813 14.59824,-43.7582 2.616,-12.876 14.84352,-34.1419 35.65056,-61.9805 16.66722,-41.2765 17.8704,-70.6109 29.51616,-84.4363 31.51488,-33.2559 51.26688,-15.2309 53.7648,-86.9991 1.3296,-38.2617 1.1472,-40.1265 -5.58912,-56.7057 -8.9568,-22.0517 -15.91968,-33.3322 -21.66672,-35.0938 -33.65904,-10.3233 -45.288,-12.8976 -67.13904,-14.8622 -43.35504,-3.9024 -87.90078,14.9532 -113.31006,-34.6941 -13.71744,-26.7994 -36.13002,-41.3734 -35.86329,-102.3945 0.2688,-61.02114 -9.66888,-60.9126 -9.66888,-82.00716 0,-34.5192 -57.26157,-33.17079 -72.25101,35.05842 -38.33556,121.06514 7.49871,147.18564 50.54934,226.46884 z m 253.2612,269.459 c -3.6912,17.3966 14.14752,18.6389 40.68528,2.832 30.73728,-18.3091 31.32414,-19.5038 47.4843,-1.0848 12.21408,13.9128 16.61328,25.4568 28.92768,75.9274 23.41008,95.9352 39.44064,114.817 97.35116,114.6691 66.0663,-0.144 100.5331,23.9563 100.5331,-10.6867 0,-15.1814 7.7007,-69.194 -26.064,-60.588 -34.1606,8.7091 -47.5454,2.568 -78.2246,-35.8829 -24.61534,-30.8477 -24.48094,-30.505 -27.97294,-71.7365 -4.5456,-53.6669 -52.14768,-98.3405 -76.04592,-110.7758 -10.52592,-5.4783 -77.64318,-4.0676 -85.51854,1.451 -9.95904,6.9586 -17.72928,79.7419 -21.15552,95.8752 z" fill-rule="evenodd"/></svg>
