<svg id="svg" xmlns="http://www.w3.org/2000/svg" width="400" height="400" viewBox="0, 0, 400,400"><path d="M139.026 59.726 C 108.992 82.256,84.408 100.722,84.395 100.761 C 84.370 100.834,134.972 125.781,135.145 125.781 C 135.199 125.781,148.407 115.952,164.496 103.939 L 193.750 82.096 193.750 50.423 C 193.750 33.003,193.724 18.753,193.691 18.756 C 193.659 18.759,169.060 37.195,139.026 59.726 M207.813 50.422 L 207.813 82.095 237.080 103.948 C 265.930 125.489,266.352 125.800,266.592 125.721 C 266.726 125.677,273.305 122.452,281.211 118.555 C 289.117 114.657,296.746 110.899,298.164 110.202 C 309.788 104.492,317.188 100.827,317.188 100.779 C 317.188 100.723,207.926 18.750,207.852 18.750 C 207.830 18.750,207.813 33.003,207.813 50.422 M171.816 116.380 L 142.969 138.218 142.969 199.219 L 142.969 260.220 171.833 282.063 C 187.708 294.077,200.736 303.906,200.782 303.906 C 200.829 303.906,213.856 294.077,229.731 282.064 L 258.594 260.222 258.594 199.219 L 258.594 138.216 229.731 116.374 C 213.856 104.360,200.822 94.533,200.766 94.536 C 200.710 94.539,187.683 104.368,171.816 116.380 M78.125 199.219 C 78.125 281.047,78.132 285.170,78.262 285.122 C 78.337 285.093,89.763 279.302,103.652 272.251 L 128.906 259.432 128.906 199.218 L 128.906 139.004 103.652 126.185 C 89.763 119.135,78.337 113.344,78.262 113.316 C 78.132 113.267,78.125 117.390,78.125 199.219 M297.988 126.146 L 272.656 139.008 272.656 199.219 L 272.656 259.429 297.995 272.293 C 311.931 279.368,323.357 285.156,323.385 285.156 C 323.414 285.156,323.438 246.484,323.438 199.219 C 323.438 151.953,323.411 113.282,323.379 113.283 C 323.347 113.283,311.921 119.072,297.988 126.146 M109.707 285.131 C 95.774 291.991,84.375 297.629,84.375 297.659 C 84.375 297.715,193.637 379.688,193.711 379.688 C 193.732 379.688,193.750 365.435,193.750 348.015 L 193.750 316.342 164.496 294.499 C 148.407 282.485,135.197 272.657,135.141 272.657 C 135.085 272.658,123.640 278.271,109.707 285.131 M237.051 294.504 L 207.813 316.343 207.813 348.015 C 207.813 365.435,207.830 379.688,207.852 379.688 C 207.926 379.688,317.188 297.715,317.188 297.659 C 317.188 297.608,314.815 296.431,302.344 290.292 C 300.303 289.288,291.408 284.909,282.578 280.561 C 273.748 276.213,266.471 272.658,266.406 272.661 C 266.342 272.663,253.132 282.493,237.051 294.504 " fill-rule="evenodd"></path></svg>